<svg width="303" height="108" viewBox="0 0 303 108" fill="none" xmlns="http://www.w3.org/2000/svg">
<path d="M71.0282 80V23.6H85.7482V47.76H85.9082L107.828 23.6H125.268L100.148 50.4L126.148 80H108.628L85.9082 54.56H85.7482V80H71.0282ZM135.119 80.486C133.283 80.486 131.645 80.126 130.205 79.406C128.765 78.686 127.613 77.714 126.749 76.49C125.921 75.266 125.507 73.88 125.507 72.332C125.507 70.388 125.993 68.858 126.965 67.742C127.973 66.626 129.611 65.816 131.879 65.312C134.183 64.808 137.279 64.556 141.167 64.556H143.003V63.152C143.003 61.1 142.571 59.624 141.707 58.724C140.843 57.824 139.421 57.374 137.441 57.374C135.929 57.374 134.417 57.608 132.905 58.076C131.393 58.508 129.845 59.21 128.261 60.182L126.587 56.348C127.955 55.376 129.665 54.602 131.717 54.026C133.769 53.45 135.731 53.162 137.603 53.162C141.203 53.162 143.867 54.026 145.595 55.754C147.323 57.446 148.187 60.11 148.187 63.746V80H143.057V75.626C142.409 77.138 141.401 78.326 140.033 79.19C138.665 80.054 137.027 80.486 135.119 80.486ZM136.199 76.598C138.143 76.598 139.763 75.914 141.059 74.546C142.355 73.178 143.003 71.45 143.003 69.362V67.904H141.221C138.593 67.904 136.523 68.03 135.011 68.282C133.535 68.534 132.473 68.966 131.825 69.578C131.213 70.154 130.907 70.964 130.907 72.008C130.907 73.376 131.375 74.492 132.311 75.356C133.247 76.184 134.543 76.598 136.199 76.598ZM155.699 80V53.648H160.991V58.346C162.359 55.214 165.203 53.468 169.523 53.108L171.305 53L171.683 57.644L168.389 57.968C163.601 58.436 161.207 60.902 161.207 65.366V80H155.699ZM175.844 89.72V53.648H181.19V58.13C181.946 56.618 183.098 55.412 184.646 54.512C186.194 53.612 187.976 53.162 189.992 53.162C192.332 53.162 194.366 53.72 196.094 54.836C197.858 55.952 199.208 57.536 200.144 59.588C201.116 61.604 201.602 64.016 201.602 66.824C201.602 69.632 201.116 72.062 200.144 74.114C199.208 76.166 197.858 77.75 196.094 78.866C194.366 79.946 192.332 80.486 189.992 80.486C188.048 80.486 186.302 80.072 184.754 79.244C183.242 78.38 182.09 77.21 181.298 75.734V89.72H175.844ZM188.642 76.274C190.91 76.274 192.71 75.464 194.042 73.844C195.41 72.224 196.094 69.884 196.094 66.824C196.094 63.764 195.41 61.442 194.042 59.858C192.71 58.238 190.91 57.428 188.642 57.428C186.374 57.428 184.556 58.238 183.188 59.858C181.856 61.442 181.19 63.764 181.19 66.824C181.19 69.884 181.856 72.224 183.188 73.844C184.556 75.464 186.374 76.274 188.642 76.274ZM217.144 80.486C210.772 80.486 207.586 76.94 207.586 69.848V53.648H213.04V69.902C213.04 72.026 213.472 73.592 214.336 74.6C215.2 75.608 216.568 76.112 218.44 76.112C220.492 76.112 222.148 75.428 223.408 74.06C224.704 72.692 225.352 70.856 225.352 68.552V53.648H230.806V80H225.514V75.788C224.65 77.336 223.498 78.506 222.058 79.298C220.618 80.09 218.98 80.486 217.144 80.486ZM247.078 80.486C244.198 80.486 242.038 79.676 240.598 78.056C239.194 76.436 238.492 74.06 238.492 70.928V41.93H243.946V70.604C243.946 74.168 245.404 75.95 248.32 75.95C248.752 75.95 249.148 75.932 249.508 75.896C249.904 75.86 250.3 75.788 250.696 75.68L250.588 80.054C249.364 80.342 248.194 80.486 247.078 80.486ZM263.584 80.486C260.704 80.486 258.544 79.676 257.104 78.056C255.7 76.436 254.998 74.06 254.998 70.928V41.93H260.452V70.604C260.452 74.168 261.91 75.95 264.826 75.95C265.258 75.95 265.654 75.932 266.014 75.896C266.41 75.86 266.806 75.788 267.202 75.68L267.094 80.054C265.87 80.342 264.7 80.486 263.584 80.486ZM273.571 89.72L278.269 79.298L267.253 53.648H273.085L281.185 73.682L289.393 53.648H295.009L279.295 89.72H273.571Z" fill="none"/>
<path d="M25.6997 50.558C25.6997 43.4725 19.9353 37.7081 12.8497 37.7081C5.76425 37.7081 0 43.4725 0 50.558C0 52.6343 0.495418 54.5969 1.3738 56.3343L12.8497 80.0001L24.3277 56.3307C25.2047 54.594 25.6997 52.6327 25.6997 50.558ZM12.8497 57.6691C8.92875 57.6691 5.73861 54.4789 5.73861 50.558C5.73861 46.637 8.92875 43.4469 12.8497 43.4469C16.7708 43.4469 19.9608 46.637 19.9608 50.558C19.9608 54.4789 16.7708 57.6691 12.8497 57.6691Z" fill="none"/>
<path d="M49.2605 10C45.6727 10 42.7537 12.9189 42.7537 16.5067C42.7537 17.5582 43.0046 18.5519 43.4494 19.4319L49.2605 31.4156L55.0726 19.43C55.5167 18.5506 55.7674 17.5574 55.7674 16.5069C55.7674 12.9189 52.8482 10 49.2605 10ZM49.2605 20.1076C47.2749 20.1076 45.6596 18.4923 45.6596 16.5067C45.6596 14.5213 47.2749 12.9058 49.2605 12.9058C51.2458 12.9058 52.8613 14.5213 52.8613 16.5067C52.8613 18.4923 51.2458 20.1076 49.2605 20.1076Z" fill="none"/>
<path d="M43.5933 52.2127C43.3294 50.9712 42.9865 49.7546 42.5546 48.5601C41.9757 46.9596 41.2814 45.3956 40.7496 43.7769C39.7557 40.7513 41.4704 38.2262 41.7926 37.7672C42.3572 36.9636 43.0174 36.2261 43.714 35.5353C45.0551 34.2056 46.5342 33.017 48.0817 31.9223C47.89 31.6253 47.7043 31.325 47.5274 31.0193C45.3017 31.8918 33.8558 35.8922 34.1349 44.7298C34.1909 46.5014 34.8754 48.1875 35.2972 49.9048C35.5004 50.7323 35.6767 51.5671 35.7845 52.4129C35.831 52.7937 35.8595 53.1766 35.8907 53.5593C35.8916 53.5564 35.8913 53.5543 35.8895 53.5527C35.8905 53.5638 35.9189 54.7656 35.8656 55.2862C35.6986 56.9161 35.4579 58.5629 34.7708 60.058C34.1317 61.4481 33.1676 62.657 31.975 63.6126C29.2486 65.7968 25.6364 66.6699 22.2279 67.021C22.0656 67.038 21.9033 67.0526 21.741 67.0667L15.6552 79.6163C18.658 79.4297 21.6531 79.0188 24.5752 78.2996C28.014 77.4532 31.3652 76.1746 34.368 74.2795C37.3682 72.3864 39.9483 69.8252 41.6659 66.707C43.4627 63.4454 44.1826 59.7094 44.0293 56.0074C43.9773 54.7429 43.8573 53.4538 43.5933 52.2127Z" fill="none"/>
</svg>
