<svg id="Capa_1" enable-background="new 0 0 511.771 511.771" height="512" viewBox="0 0 511.771 511.771" width="512" xmlns="http://www.w3.org/2000/svg"><g><path d="m13.827 284.327h32.21c4.143 0 7.5-3.358 7.5-7.5s-3.357-7.5-7.5-7.5h-32.21c-4.143 0-7.5 3.358-7.5 7.5s3.357 7.5 7.5 7.5z"/><path d="m474.398 0h-24.585c-4.143 0-7.5 3.358-7.5 7.5s3.357 7.5 7.5 7.5h24.585c8.848 0 16.046 7.198 16.046 16.045v107.277c0 8.848-7.198 16.045-16.046 16.045h-404.816c-8.848 0-16.045-7.198-16.045-16.045v-9.935c0-4.142-3.357-7.5-7.5-7.5s-7.5 3.358-7.5 7.5v9.935c0 17.119 13.927 31.045 31.045 31.045h172.962v46.779h-37.308c-10.556 0-20.832 3.014-29.718 8.716l-69.28 44.464h-28.239c-4.143 0-7.5 3.358-7.5 7.5s3.357 7.5 7.5 7.5h30.438c1.437 0 2.842-.413 4.051-1.188l71.132-45.652c6.463-4.147 13.938-6.34 21.616-6.34h37.308v34.826c-11.15 4.25-19.095 15.047-19.095 27.671 0 1.439.109 2.853.308 4.238l-1.766 3.031c-10.148 17.427-28.98 28.253-49.147 28.253h-16.792c-4.143 0-7.5 3.358-7.5 7.5s3.357 7.5 7.5 7.5h16.792c23.328 0 45.238-11.469 58.617-30.3.615.656 1.258 1.285 1.929 1.883-6.093 5.426-9.941 13.323-9.941 22.105s3.847 16.679 9.941 22.105c-6.093 5.426-9.941 13.323-9.941 22.105s3.847 16.679 9.941 22.105c-6.093 5.427-9.941 13.323-9.941 22.105 0 2.515.318 4.958.911 7.291h-70.898c-7.163 0-14.268-1.82-20.548-5.263l-41.277-22.63c-1.228-.673-2.619-.988-4.015-.912l-72.204 3.947c-4.136.226-7.306 3.762-7.08 7.898.227 4.137 3.786 7.31 7.898 7.08l70.066-3.83 39.4 21.601c8.483 4.652 18.082 7.11 27.759 7.11h80.143c2.617 2.286 5.636 4.121 8.939 5.38v50.326c0 4.142 3.357 7.5 7.5 7.5s7.5-3.358 7.5-7.5v-48.391h31.683v48.391c0 4.142 3.357 7.5 7.5 7.5s7.5-3.358 7.5-7.5v-51.559c9.661-4.88 16.306-14.894 16.306-26.437 0-7.661-2.926-14.652-7.718-19.914 7.679-5.354 12.718-14.245 12.718-24.296 0-7.435-2.761-14.233-7.304-19.438 8.074-5.293 13.422-14.417 13.422-24.772 0-8.174-3.33-15.583-8.704-20.946 6.891-5.425 11.328-13.833 11.328-23.264 0-16.325-13.28-29.605-29.604-29.605h-.443v-94.671h170.172c17.119 0 31.046-13.927 31.046-31.045v-107.279c-.001-17.118-13.928-31.045-31.047-31.045zm-235.949 337.854c0-8.053 6.552-14.605 14.605-14.605h48.99c8.054 0 14.605 6.552 14.605 14.605 0 8.054-6.552 14.605-14.605 14.605h-48.99c-8.053 0-14.605-6.551-14.605-14.605zm0 44.21c0-8.053 6.552-14.605 14.605-14.605h42.873c8.053 0 14.604 6.552 14.604 14.605s-6.552 14.605-14.604 14.605h-42.873c-8.053 0-14.605-6.551-14.605-14.605zm52.478 58.816h-37.872c-8.054 0-14.605-6.552-14.605-14.605 0-8.054 6.552-14.605 14.605-14.605h37.872c8.054 0 14.605 6.552 14.605 14.605s-6.552 14.605-14.605 14.605zm28.347-147.236c0 8.053-6.552 14.605-14.604 14.605h-51.615c-8.054 0-14.605-6.552-14.605-14.605 0-8.054 6.552-14.605 14.605-14.605h51.615c8.052 0 14.604 6.551 14.604 14.605zm-30.048-29.605h-31.683v-94.671h31.683z"/><path d="m46.037 103.925c4.143 0 7.5-3.358 7.5-7.5v-65.38c0-8.847 7.197-16.045 16.045-16.045h348.268c4.143 0 7.5-3.358 7.5-7.5s-3.357-7.5-7.5-7.5h-348.268c-17.118 0-31.045 13.927-31.045 31.045v65.38c0 4.142 3.357 7.5 7.5 7.5z"/><path d="m154.894 108.649h-21.312c-4.143 0-7.5 3.358-7.5 7.5s3.357 7.5 7.5 7.5h21.312c12.811 0 23.232-10.422 23.232-23.233s-10.422-23.232-23.232-23.232h-5.579c-4.539 0-8.232-3.693-8.232-8.233s3.693-8.232 8.232-8.232h17.521c4.143 0 7.5-3.358 7.5-7.5s-3.357-7.5-7.5-7.5h-17.521c-12.811 0-23.232 10.422-23.232 23.232s10.422 23.233 23.232 23.233h5.579c4.539 0 8.232 3.693 8.232 8.232s-3.693 8.233-8.232 8.233z"/><path d="m212.898 123.649c4.143 0 7.5-3.358 7.5-7.5v-55.43h12.437c4.143 0 7.5-3.358 7.5-7.5s-3.357-7.5-7.5-7.5h-39.873c-4.143 0-7.5 3.358-7.5 7.5s3.357 7.5 7.5 7.5h12.437v55.431c-.001 4.142 3.357 7.499 7.499 7.499z"/><path d="m247.362 74.215v20.937c0 15.713 12.783 28.497 28.496 28.497s28.497-12.784 28.497-28.497v-20.937c0-15.713-12.784-28.497-28.497-28.497s-28.496 12.784-28.496 28.497zm41.993 0v20.937c0 7.442-6.055 13.497-13.497 13.497-7.441 0-13.496-6.055-13.496-13.497v-20.937c0-7.442 6.055-13.497 13.496-13.497 7.443.001 13.497 6.055 13.497 13.497z"/><path d="m340.506 45.719c-10.111 0-18.338 8.226-18.338 18.337v52.093c0 4.142 3.357 7.5 7.5 7.5s7.5-3.358 7.5-7.5v-17.565h9.288c14.575 0 26.433-11.857 26.433-26.433s-11.857-26.433-26.433-26.433h-5.95zm17.382 26.432c0 6.304-5.129 11.433-11.433 11.433h-9.288v-19.528c0-1.84 1.497-3.337 3.338-3.337h5.95c6.305 0 11.433 5.128 11.433 11.432z"/><path d="m401.628 101.164c-4.143 0-7.5 3.358-7.5 7.5v7.485c0 4.142 3.357 7.5 7.5 7.5s7.5-3.358 7.5-7.5v-7.485c0-4.142-3.358-7.5-7.5-7.5z"/><path d="m409.128 53.219c0-4.142-3.357-7.5-7.5-7.5s-7.5 3.358-7.5 7.5v29.049c0 4.142 3.357 7.5 7.5 7.5s7.5-3.358 7.5-7.5z"/></g></svg>